HIERARCHY
ROOT Hips
{
	OFFSET -0.179506 -22.333345 2.821913
	CHANNELS 6 Xposition Yposition Zposition Zrotation Yrotation Xrotation 
	JOINT LeftUpLeg
	{
		OFFSET 6.951974 -9.140623 -0.681533
		CHANNELS 3 Zrotation Yrotation Xrotation
		JOINT LeftLeg
		{
			OFFSET 3.427654 -37.519855 -0.449580
			CHANNELS 3 Zrotation Yrotation Xrotation
			JOINT LeftFoot
			{
				OFFSET -1.359570 -39.796059 -4.369333
				CHANNELS 3 Zrotation Yrotation Xrotation
				JOINT LeftToe
				{
					OFFSET 2.635814 -5.579078 11.928840
					CHANNELS 3 Zrotation Yrotation Xrotation
					End Site
					{
						OFFSET 0.000000 0.000000 0.000000
					}
				}
			}
		}
	}
	JOINT RightUpLeg
	{
		OFFSET -6.767048 -9.052170 -0.431982
		CHANNELS 3 Zrotation Yrotation Xrotation
		JOINT RightLeg
		{
			OFFSET -3.829005 -38.256897 -0.885003
			CHANNELS 3 Zrotation Yrotation Xrotation
			JOINT RightFoot
			{
				OFFSET 1.577377 -39.841461 -4.231180
				CHANNELS 3 Zrotation Yrotation Xrotation
				JOINT RightToe
				{
					OFFSET -2.537174 -4.814398 12.334795
					CHANNELS 3 Zrotation Yrotation Xrotation
					End Site
					{
						OFFSET 0.000000 0.000000 0.000000
					}
				}
			}
		}
	}
	JOINT Spine
	{
		OFFSET -0.253288 10.896323 -2.669631
		CHANNELS 3 Zrotation Yrotation Xrotation
		JOINT Spine1
		{
			OFFSET 0.548704 13.518043 0.109247
			CHANNELS 3 Zrotation Yrotation Xrotation
			JOINT Spine2
			{
				OFFSET 0.145701 5.292222 2.542457
				CHANNELS 3 Zrotation Yrotation Xrotation
				JOINT Neck
				{
					OFFSET -0.277840 21.387037 -4.285703
					CHANNELS 3 Zrotation Yrotation Xrotation
					JOINT Head
					{
						OFFSET 0.515184 6.496960 5.134897
						CHANNELS 3 Zrotation Yrotation Xrotation
						End Site
						{
							OFFSET 0.000000 0.000000 0.000000
						}
					}
				}
				JOINT LeftShoulder
				{
					OFFSET 7.884473 12.174932 -3.408961
					CHANNELS 3 Zrotation Yrotation Xrotation
					JOINT LeftArm
					{
						OFFSET 9.097692 3.046888 -0.886815
						CHANNELS 3 Zrotation Yrotation Xrotation
						JOINT LeftForeArm
						{
							OFFSET 25.961220 -1.277207 -2.745643
							CHANNELS 3 Zrotation Yrotation Xrotation
							JOINT LeftHand
							{
								OFFSET 24.923361 0.898606 -0.117091
								CHANNELS 3 Zrotation Yrotation Xrotation
								End Site
								{
									OFFSET 0.000000 0.000000 0.000000
								}
							}
						}
					}
				}
				JOINT RightShoulder
				{
					OFFSET -8.175920 11.883285 -3.861528
					CHANNELS 3 Zrotation Yrotation Xrotation
					JOINT RightArm
					{
						OFFSET -9.601238 3.255117 -0.914307
						CHANNELS 3 Zrotation Yrotation Xrotation
						JOINT RightForeArm
						{
							OFFSET -25.374195 -1.332924 -2.140099
							CHANNELS 3 Zrotation Yrotation Xrotation
							JOINT RightHand
							{
								OFFSET -25.529810 0.777228 -0.555919
								CHANNELS 3 Zrotation Yrotation Xrotation
								End Site
								{
									OFFSET 0.000000 0.000000 0.000000
								}
							}
						}
					}
				}
			}
		}
	}
}
MOTION
Frames: 12
Frame Time: 0.033333
-20.481268 50.223522 92.602867 -128.363322 14.432743 71.372896 4.488468 -4.522303 -10.026480 -5.772471 -8.530472 43.075329 3.321776 6.544858 -19.910015 nan nan nan 9.022119 -6.258178 0.138763 -4.181754 -14.605816 50.522474 3.198358 -1.522260 -32.781702 nan nan nan -8.947994 8.784591 15.088017 2.663290 0.874967 -2.870636 2.111497 4.614072 2.339704 9.491238 -13.442908 11.533543 17.864988 -27.067532 2.652644 -3.189973 5.946412 -2.443406 -49.735172 -27.497057 8.185048 97.952227 -76.835822 -75.432384 29.572064 -24.919880 -42.937252 13.122757 -6.849478 6.342889 67.718951 -14.264593 1.446196 -19.210535 46.066110 -3.919362 -31.294858 15.216448 -40.905653 
-20.528639 50.659515 92.888969 -126.991359 15.383120 71.020417 5.174450 -4.371179 -9.313059 -6.041993 -9.812404 43.098170 2.753709 6.498322 -19.891347 nan nan nan 8.277025 -5.236795 -2.873274 -3.804087 -14.456508 50.336923 3.583923 -1.423825 -32.647535 nan nan nan -8.668956 7.504489 16.340179 2.889915 0.064642 -2.991697 2.306126 3.553249 2.749980 9.332819 -12.999755 12.036371 17.909217 -25.703935 2.969447 -4.199530 4.120209 -2.537040 -50.767553 -29.481615 9.372698 93.604641 -77.886938 -71.101029 30.576782 -24.479295 -41.592538 13.407635 -7.046302 6.614205 68.303887 -15.263327 1.309149 -18.047442 44.702030 -4.768093 -32.363506 12.471575 -43.167998 
-20.492777 51.046722 93.160233 -125.973486 16.222658 70.575414 5.821020 -4.307469 -8.533139 -6.114968 -10.805700 43.003166 2.559714 6.563680 -19.931876 nan nan nan 7.379199 -3.677669 -5.928134 -3.188095 -13.995983 49.467547 3.743186 -1.971456 -32.721803 nan nan nan -8.470372 6.236200 17.698282 3.088052 -0.585874 -3.174808 2.457400 2.417358 3.377161 9.479662 -12.305420 12.043843 17.670718 -24.517732 3.699651 -5.040577 2.240452 -2.458373 -51.399471 -31.758372 10.528233 87.874125 -78.498660 -65.928904 31.376698 -24.337856 -40.365652 13.693026 -7.073766 6.949286 68.648051 -15.770979 1.527964 -16.985265 43.291797 -6.471690 -34.251347 10.345692 -44.885676 
-20.353563 51.400421 93.417213 -125.301183 17.012772 70.130984 6.536836 -4.276250 -7.874195 -6.397363 -11.907961 42.991852 2.769385 6.914865 -19.848974 nan nan nan 6.378304 -2.005163 -9.314411 -2.430805 -13.050902 48.221265 3.812193 -2.877610 -32.684950 nan nan nan -8.423377 5.001596 19.185692 3.352665 -1.114053 -3.497732 2.633333 1.294558 4.068241 9.586443 -11.568811 11.809704 17.392532 -23.138398 4.511893 -5.572258 0.376062 -2.071837 -51.844182 -34.032035 11.711018 81.200960 -78.539451 -60.135868 34.171355 -23.496288 -41.249647 13.886385 -6.836687 7.346570 68.958951 -16.181261 2.043585 -16.487813 41.901458 -8.082298 -35.894589 9.573345 -46.960698 
-20.172939 51.743984 93.689079 -124.719573 17.848551 69.659652 7.317009 -4.217747 -7.238882 -6.659011 -13.048632 42.950709 2.878280 7.252316 -19.718180 nan nan nan 4.978483 -0.743115 -13.043822 -1.717654 -12.228643 47.250246 4.430824 -3.359472 -32.124810 nan nan nan -8.447802 3.867933 20.732055 3.725324 -1.758476 -3.495231 2.936979 0.282536 4.420148 9.382485 -10.856302 11.892530 17.395767 -21.602982 4.843332 -5.979377 -2.120312 -1.707724 -51.664190 -36.041463 12.268781 74.251084 -78.371469 -54.187814 35.665847 -23.104383 -40.682088 13.962395 -6.206390 7.842170 69.164112 -16.921754 1.917036 -16.493728 41.337030 -9.970310 -35.115905 9.042199 -48.379047 
-19.987513 52.059490 93.963097 -124.464947 18.667541 68.916169 8.120054 -3.817058 -6.338846 -6.538336 -14.015287 42.765991 2.350058 7.144649 -19.590139 nan nan nan 3.423214 0.057034 -16.728783 -2.165325 -11.864295 46.559187 4.618477 -2.858268 -31.268969 nan nan nan -8.266177 2.813159 22.590775 3.965199 -2.463925 -3.346670 3.262292 -0.577877 4.603388 9.102245 -9.869160 12.169467 17.543454 -20.175182 4.719097 -6.218926 -5.033671 -1.428726 -50.821697 -37.558993 12.229293 67.705139 -77.794611 -48.905440 35.773089 -23.223171 -40.044175 13.834222 -5.477269 8.146775 69.206796 -17.756277 1.523681 -16.387664 41.251592 -11.172621 -34.131454 8.895822 -48.801801 
-19.762539 52.311253 94.202347 -124.782959 19.405448 68.137334 9.044409 -3.182496 -5.637466 -6.533408 -14.786220 42.812292 1.580560 7.163650 -19.459055 nan nan nan 1.654125 1.059886 -20.627777 -2.371711 -11.833905 45.460373 4.881533 -2.928620 -31.928494 nan nan nan -8.028256 1.647917 24.556326 4.203212 -3.036795 -3.560751 3.493019 -1.214983 4.893527 8.758350 -8.646121 12.566535 17.553205 -18.647355 4.561035 -6.358813 -7.862805 -1.113346 -49.287991 -38.717493 11.506004 61.798876 -76.874768 -43.319532 35.466777 -23.376611 -38.868908 13.594355 -4.535610 8.352802 68.957519 -18.620700 1.321640 -16.369380 41.423444 -11.813271 -33.827699 8.757522 -48.662091 
-19.523893 52.541664 94.397476 -125.320694 20.151377 67.628006 10.077858 -2.789412 -5.384012 -6.469051 -15.092418 42.995537 0.959084 7.206830 -19.320960 nan nan nan -0.394833 2.079526 -24.819817 -2.402176 -12.766819 43.515832 5.688950 -3.161161 -31.682301 nan nan nan -7.914681 0.528925 26.098685 4.659202 -3.547019 -3.727438 3.808211 -1.818527 5.151620 8.280812 -7.373620 13.224660 17.529475 -17.020165 4.188191 -6.276927 -10.409803 -0.736470 -47.953405 -39.979794 10.498939 55.481200 -75.355145 -37.032404 34.260025 -24.409380 -37.324751 13.171417 -3.519003 8.862568 68.481395 -19.227747 1.323950 -16.861702 41.786891 -12.115128 -33.105152 8.658262 -48.614919 
-19.311575 52.771942 94.585579 -125.909472 20.902210 67.019931 11.133239 -2.572791 -4.958506 -6.347989 -15.307700 43.036846 0.439623 7.247964 -19.293493 nan nan nan -2.569776 2.360684 -28.792377 -2.305446 -14.319214 40.902884 6.794374 -3.746032 -30.683945 nan nan nan -7.809793 -0.229601 27.367104 5.188015 -4.054307 -3.077686 4.245396 -2.590768 5.109075 7.827984 -6.098706 13.715024 17.574556 -15.641054 3.633851 -5.746875 -12.832716 -0.542776 -46.698930 -41.512493 9.457848 49.166404 -73.387946 -31.502636 34.629356 -24.565271 -36.292759 12.771924 -2.586892 9.274280 67.535749 -19.619386 1.457980 -17.277778 42.617177 -12.571351 -32.742333 8.291223 -48.752908 
-19.118233 52.985561 94.774483 -127.025758 21.637185 65.956991 12.443535 -2.175821 -4.104825 -6.227062 -15.267246 43.003357 -0.495445 7.041038 -19.393152 nan nan nan -4.437440 2.328428 -32.457317 -1.665424 -15.650366 38.091618 7.493569 -2.986877 -30.703722 nan nan nan -7.511989 -0.819375 28.763938 5.537422 -4.543976 -1.406390 4.710131 -3.134408 4.245227 7.497076 -4.509672 13.910163 17.567152 -14.566766 3.155635 -4.574934 -14.916801 -1.229703 -45.754688 -42.560410 8.822563 43.643889 -71.185840 -27.838022 35.174173 -24.444313 -36.694700 12.390699 -1.570767 9.377912 66.059221 -20.035484 1.769196 -17.286124 43.738263 -13.318879 -32.381835 7.880913 -48.683385 
-18.960276 53.142570 94.969917 -128.798519 22.380796 64.593273 14.027495 -1.361796 -2.988282 -5.969289 -15.084967 42.869618 -1.352489 6.605748 -19.443624 nan nan nan -5.818845 2.380547 -36.019341 -1.034829 -16.935280 34.892726 8.163336 -2.713490 -30.058310 nan nan nan -7.097423 -1.210115 30.444933 5.925848 -4.535374 -0.441541 5.310429 -3.668669 3.788504 7.082294 -2.954279 14.063806 17.255398 -13.558135 2.719746 -3.216791 -16.568072 -2.140403 -45.181956 -43.845380 8.196216 38.059797 -68.316410 -23.896529 35.532919 -24.797798 -36.860809 11.629051 -0.641413 9.346690 64.322643 -20.222745 2.153267 -17.024761 44.598880 -13.552134 -31.950442 7.877429 -48.817832 
-18.850460 53.294781 95.218079 -130.830777 23.043261 62.963105 15.702245 -0.208880 -1.483428 -5.628971 -15.051110 42.537277 -2.296095 6.080476 -19.404077 nan nan nan -6.723421 2.164723 -39.155132 -0.221769 -17.579850 31.237283 8.914194 -2.040733 -29.424820 nan nan nan -6.742475 -1.754691 32.385391 6.184572 -4.579681 0.320929 5.868519 -3.765498 3.386685 6.611496 -1.266822 14.445001 16.904699 -12.594186 2.217583 -1.760765 -17.790374 -3.340643 -44.708255 -45.069492 7.336369 32.399046 -65.096126 -19.071316 36.484984 -25.280338 -35.727259 10.816404 0.337186 9.447757 62.488650 -19.989582 2.243106 -16.339543 45.360782 -13.110711 -32.486846 7.828831 -49.364365 
